HIERARCHY
ROOT root
{
	OFFSET	0	13.1	24.9
	CHANNELS 6  Xposition Yposition Zposition Xrotation Yrotation Zrotation
	JOINT spine_1
	{
		OFFSET	0	9.99999	0
		CHANNELS 3  Xrotation Yrotation Zrotation
		JOINT spine_2
		{
			OFFSET	0	112	-10
			CHANNELS 3  Xrotation Yrotation Zrotation
			JOINT spine_3
			{
				OFFSET	0	206.5	19.3
				CHANNELS 3  Xrotation Yrotation Zrotation
				JOINT spine_4
				{
					OFFSET	0	110.4	14.6
					CHANNELS 3  Xrotation Yrotation Zrotation
					JOINT neck_1
					{
						OFFSET	0	71.8	-50.3
						CHANNELS 3  Xrotation Yrotation Zrotation
						JOINT neck_2
						{
							OFFSET	0	86.2	-25.8
							CHANNELS 3  Xrotation Yrotation Zrotation
							JOINT head_ee
							{
								OFFSET	0	179.8	-8.7
								CHANNELS 3  Xrotation Yrotation Zrotation
								End Site
								{
									OFFSET	1	0	0
								}
							}
						}
					}
					JOINT left_clavicle
					{
						OFFSET	-43.2	22.4	-70.8
						CHANNELS 3  Xrotation Yrotation Zrotation
						JOINT left_shoulder
						{
							OFFSET	-93.9	-5.79999	48.7
							CHANNELS 3  Xrotation Yrotation Zrotation
							JOINT left_elbow
							{
								OFFSET	-291.4	-30.8	15.2
								CHANNELS 3  Xrotation Yrotation Zrotation
								JOINT left_lowarm_twist
								{
									OFFSET	-110.7	-3.89999	13.6
									CHANNELS 3  Xrotation Yrotation Zrotation
									JOINT left_hand
									{
										OFFSET	-110.7	-3.89999	13.6
										CHANNELS 3  Xrotation Yrotation Zrotation
										JOINT left_ee
										{
											OFFSET	-80.8	-5.10001	12.1
											CHANNELS 3  Xrotation Yrotation Zrotation
											End Site
											{
												OFFSET	1	0	0
											}
										}
									}
								}
							}
						}
					}
					JOINT right_clavicle
					{
						OFFSET	43.2	22.4	-70.8
						CHANNELS 3  Xrotation Yrotation Zrotation
						JOINT right_shoulder
						{
							OFFSET	93.9	-5.79999	48.7
							CHANNELS 3  Xrotation Yrotation Zrotation
							JOINT right_elbow
							{
								OFFSET	291.4	-30.8	15.2
								CHANNELS 3  Xrotation Yrotation Zrotation
								JOINT right_lowarm_twist
								{
									OFFSET	110.7	-3.89999	13.6
									CHANNELS 3  Xrotation Yrotation Zrotation
									JOINT right_hand
									{
										OFFSET	110.7	-3.89999	13.6
										CHANNELS 3  Xrotation Yrotation Zrotation
										JOINT right_ee
										{
											OFFSET	80.8	-5.10001	12.1
											CHANNELS 3  Xrotation Yrotation Zrotation
											End Site
											{
												OFFSET	1	0	0
											}
										}
									}
								}
							}
						}
					}
				}
			}
		}
	}
	JOINT left_hip
	{
		OFFSET	-82.8	-127.5	0.300001
		CHANNELS 3  Xrotation Yrotation Zrotation
		JOINT left_knee
		{
			OFFSET	-28.2	-396.7	2.2
			CHANNELS 3  Xrotation Yrotation Zrotation
			JOINT left_ankle
			{
				OFFSET	-11.7	-411.3	35.4
				CHANNELS 3  Xrotation Yrotation Zrotation
				JOINT left_toes
				{
					OFFSET	0	-60	-88.6
					CHANNELS 3  Xrotation Yrotation Zrotation
					JOINT left_foot_ee
					{
						OFFSET	-22.5	-16.5	-42.2
						CHANNELS 3  Xrotation Yrotation Zrotation
						End Site
						{
							OFFSET	1	0	0
						}
					}
				}
			}
		}
	}
	JOINT right_hip
	{
		OFFSET	82.8	-127.5	0.300001
		CHANNELS 3  Xrotation Yrotation Zrotation
		JOINT right_knee
		{
			OFFSET	28.2	-396.7	2.2
			CHANNELS 3  Xrotation Yrotation Zrotation
			JOINT right_ankle
			{
				OFFSET	11.7	-411.3	35.4
				CHANNELS 3  Xrotation Yrotation Zrotation
				JOINT right_toes
				{
					OFFSET	0	-60	-88.6
					CHANNELS 3  Xrotation Yrotation Zrotation
					JOINT right_foot_ee
					{
						OFFSET	22.5	-16.5	-42.2
						CHANNELS 3  Xrotation Yrotation Zrotation
						End Site
						{
							OFFSET	1	0	0
						}
					}
				}
			}
		}
	}
}
MOTION
Frames: 9
Frame Time: 0.02
981.561604867 562.587 -1694.06467213 -65.1368430744 75.3946598295 76.0555665975 5.26124 -1.15192 -3.70568 5.26842 -0.913958 -3.77135 5.32161 -0.461631 -3.85284 5.30247 -1.0639 -3.73187 -7.80487 -16.3522 9.26495 -7.58624 -36.9827 5.68782 -0.0 0.0 -0.0 12.2052 -29.429 23.4185 6.39183 0.0798159 62.7286 1.72172 -40.4571 0.634485 85.401 -4.4746 -8.88445 -7.38265 27.7845 -31.3333 -0.0 0.0 -0.0 -0.11734 -3.5496 -0.203923 -18.331 -11.9657 -78.6544 0.554212 15.3519 -0.0746963 77.4358 3.54621 8.45867 -1.38868 7.03012 12.4528 0.0 0.0 0.0 20.7329 -42.5648 -6.94038 -1.88397 0.0729739 0.279902 33.0184 17.3495 -4.28827 39.4104 -0.0 -0.0 -0.0 0.0 -0.0 42.0473 -1.64989 -4.73508 -67.8221 3.10113 -9.32759 22.062 -13.7971 3.00445 4.62208 -0.0 -0.0 0.0 0.0 0.0 
981.645544495 562.587 -1694.48801427 -63.7412304942 75.219625753 74.6127803858 5.26124 -1.15192 -3.70568 5.26842 -0.913958 -3.77135 5.32161 -0.461631 -3.85284 5.30247 -1.0639 -3.73187 -7.80487 -16.3522 9.26495 -7.58624 -36.9827 5.68782 -0.0 0.0 -0.0 12.2052 -29.429 23.4185 6.39183 0.0798159 62.7286 1.72172 -40.4571 0.634485 85.401 -4.4746 -8.88445 -7.38265 27.7845 -31.3333 -0.0 0.0 -0.0 -0.11734 -3.5496 -0.203923 -18.331 -11.9657 -78.6544 0.554212 15.3519 -0.0746963 77.4358 3.54621 8.45867 -1.38868 7.03012 12.4528 0.0 0.0 0.0 20.7329 -42.5648 -6.94038 -1.88397 0.0729739 0.279902 33.0184 17.3495 -4.28827 39.4104 -0.0 -0.0 -0.0 0.0 -0.0 42.0473 -1.64989 -4.73508 -67.8221 3.10113 -9.32759 22.062 -13.7971 3.00445 4.62208 -0.0 -0.0 0.0 0.0 0.0 
969.963397954 554.113 -1700.6402008 -62.8383243645 75.0087268438 73.142526376 6.04135 -1.19506 -3.58247 6.04797 -0.964835 -3.65113 6.10137 -0.577365 -3.73196 6.08381 -1.15914 -3.59424 -11.6912 -16.1967 11.6065 -12.0929 -38.0906 6.48474 -0.0 0.0 -0.0 10.8659 -30.6721 20.2328 7.6503 -3.34777 62.766 1.55554 -37.6142 0.529794 85.1009 -4.4386 -8.87077 -3.69857 14.6305 -17.2781 -0.0 0.0 -0.0 -2.86527 -6.77385 4.36249 -14.994 -12.8751 -81.6804 0.498405 13.8689 -0.0606181 76.5226 3.44377 8.40172 1.25466 21.1371 0.684847 0.0 0.0 0.0 20.4883 -43.5215 -7.1732 -1.34417 0.0530082 0.199467 42.5225 17.0827 -5.18982 27.508 -0.0 -0.0 -0.0 0.0 -0.0 42.9142 7.42826 -6.04468 -60.7281 2.27912 -8.60518 32.3924 8.02504 4.26233 2.50025 -0.0 -0.0 0.0 0.0 0.0 
970.124245193 554.113 -1701.25960206 -61.2112845383 74.7754015544 71.4572488693 6.04135 -1.19506 -3.58247 6.04797 -0.964835 -3.65113 6.10137 -0.577365 -3.73196 6.08381 -1.15914 -3.59424 -11.6912 -16.1967 11.6065 -12.0929 -38.0906 6.48474 -0.0 0.0 -0.0 10.8659 -30.6721 20.2328 7.6503 -3.34777 62.766 1.55554 -37.6142 0.529794 85.1009 -4.4386 -8.87077 -3.69857 14.6305 -17.2781 -0.0 0.0 -0.0 -2.86527 -6.77385 4.36249 -14.994 -12.8751 -81.6804 0.498405 13.8689 -0.0606181 76.5226 3.44377 8.40172 1.25466 21.1371 0.684847 0.0 0.0 0.0 20.4883 -43.5215 -7.1732 -1.34417 0.0530082 0.199467 42.5225 17.0827 -5.18982 27.508 -0.0 -0.0 -0.0 0.0 -0.0 42.9142 7.42826 -6.04468 -60.7281 2.27912 -8.60518 32.3924 8.02504 4.26233 2.50025 -0.0 -0.0 0.0 0.0 0.0 
970.266951447 554.113 -1701.79145406 -59.8520528826 74.5648536466 70.0478784932 6.04135 -1.19506 -3.58247 6.04797 -0.964835 -3.65113 6.10137 -0.577365 -3.73196 6.08381 -1.15914 -3.59424 -11.6912 -16.1967 11.6065 -12.0929 -38.0906 6.48474 -0.0 0.0 -0.0 10.8659 -30.6721 20.2328 7.6503 -3.34777 62.766 1.55554 -37.6142 0.529794 85.1009 -4.4386 -8.87077 -3.69857 14.6305 -17.2781 -0.0 0.0 -0.0 -2.86527 -6.77385 4.36249 -14.994 -12.8751 -81.6804 0.498405 13.8689 -0.0606181 76.5226 3.44377 8.40172 1.25466 21.1371 0.684847 0.0 0.0 0.0 20.4883 -43.5215 -7.1732 -1.34417 0.0530082 0.199467 42.5225 17.0827 -5.18982 27.508 -0.0 -0.0 -0.0 0.0 -0.0 42.9142 7.42826 -6.04468 -60.7281 2.27912 -8.60518 32.3924 8.02504 4.26233 2.50025 -0.0 -0.0 0.0 0.0 0.0 
970.534168485 554.113 -1702.74726624 -57.4976577526 74.1637607142 67.6030525901 6.04135 -1.19506 -3.58247 6.04797 -0.964835 -3.65113 6.10137 -0.577365 -3.73196 6.08381 -1.15914 -3.59424 -11.6912 -16.1967 11.6065 -12.0929 -38.0906 6.48474 -0.0 0.0 -0.0 10.8659 -30.6721 20.2328 7.6503 -3.34777 62.766 1.55554 -37.6142 0.529794 85.1009 -4.4386 -8.87077 -3.69857 14.6305 -17.2781 -0.0 0.0 -0.0 -2.86527 -6.77385 4.36249 -14.994 -12.8751 -81.6804 0.498405 13.8689 -0.0606181 76.5226 3.44377 8.40172 1.25466 21.1371 0.684847 0.0 0.0 0.0 20.4883 -43.5215 -7.1732 -1.34417 0.0530082 0.199467 42.5225 17.0827 -5.18982 27.508 -0.0 -0.0 -0.0 0.0 -0.0 42.9142 7.42826 -6.04468 -60.7281 2.27912 -8.60518 32.3924 8.02504 4.26233 2.50025 -0.0 -0.0 0.0 0.0 0.0 
973.116082552 559.622 -1706.33727549 -56.508187026 71.702241389 65.3012175925 6.57881 -0.838652 -2.98176 6.58352 -0.647305 -3.02902 6.61133 -0.353511 -3.07713 6.59909 -0.834835 -2.98283 -14.3725 -16.3216 9.51606 -15.3772 -36.8187 3.32095 -0.0 0.0 -0.0 9.88021 -30.397 18.0751 2.29694 -5.42745 60.3584 1.84147 -42.3673 0.713706 85.4271 -4.47773 -8.88563 2.64882 7.58797 20.8516 -0.0 0.0 -0.0 -4.26405 -10.0429 6.21133 -9.36844 -14.1421 -83.431 0.179784 5.08944 -0.00799018 76.0832 3.39481 8.37374 1.71894 25.5192 -0.341469 0.0 0.0 0.0 20.9839 -44.9505 -8.73792 -3.12269 0.115917 0.465156 42.1576 20.0586 -5.22455 38.053 -0.0 -0.0 -0.0 0.0 -0.0 48.2588 22.0851 -13.8759 -43.8867 0.732371 -6.53362 38.2084 3.33375 4.75133 3.72816 -0.0 -0.0 0.0 0.0 0.0 
973.097214482 559.622 -1706.28333882 -56.6224691072 71.7271740723 65.4215770938 6.57881 -0.838652 -2.98176 6.58352 -0.647305 -3.02902 6.61133 -0.353511 -3.07713 6.59909 -0.834835 -2.98283 -14.3725 -16.3216 9.51606 -15.3772 -36.8187 3.32095 -0.0 0.0 -0.0 9.88021 -30.397 18.0751 2.29694 -5.42745 60.3584 1.84147 -42.3673 0.713706 85.4271 -4.47773 -8.88563 2.64882 7.58797 20.8516 -0.0 0.0 -0.0 -4.26405 -10.0429 6.21133 -9.36844 -14.1421 -83.431 0.179784 5.08944 -0.00799018 76.0832 3.39481 8.37374 1.71894 25.5192 -0.341469 0.0 0.0 0.0 20.9839 -44.9505 -8.73792 -3.12269 0.115917 0.465156 42.1576 20.0586 -5.22455 38.053 -0.0 -0.0 -0.0 0.0 -0.0 48.2588 22.0851 -13.8759 -43.8867 0.732371 -6.53362 38.2084 3.33375 4.75133 3.72816 -0.0 -0.0 0.0 0.0 0.0 
973.173048838 559.622 -1706.49929783 -56.166608763 71.6268523765 64.9413704363 6.57881 -0.838652 -2.98176 6.58352 -0.647305 -3.02902 6.61133 -0.353511 -3.07713 6.59909 -0.834835 -2.98283 -14.3725 -16.3216 9.51606 -15.3772 -36.8187 3.32095 -0.0 0.0 -0.0 9.88021 -30.397 18.0751 2.29694 -5.42745 60.3584 1.84147 -42.3673 0.713706 85.4271 -4.47773 -8.88563 2.64882 7.58797 20.8516 -0.0 0.0 -0.0 -4.26405 -10.0429 6.21133 -9.36844 -14.1421 -83.431 0.179784 5.08944 -0.00799018 76.0832 3.39481 8.37374 1.71894 25.5192 -0.341469 0.0 0.0 0.0 20.9839 -44.9505 -8.73792 -3.12269 0.115917 0.465156 42.1576 20.0586 -5.22455 38.053 -0.0 -0.0 -0.0 0.0 -0.0 48.2588 22.0851 -13.8759 -43.8867 0.732371 -6.53362 38.2084 3.33375 4.75133 3.72816 -0.0 -0.0 0.0 0.0 0.0 
